<?xml version="1.0" standalone="no"?>
<!DOCTYPE svg PUBLIC "-//W3C//DTD SVG 20010904//EN"
 "http://www.w3.org/TR/2001/REC-SVG-20010904/DTD/svg10.dtd">
<svg version="1.0" xmlns="http://www.w3.org/2000/svg"
 width="720.000000pt" height="720.000000pt" viewBox="0 0 720.000000 720.000000"
 preserveAspectRatio="xMidYMid meet">
<metadata>
Created by potrace 1.14, written by Peter Selinger 2001-2017
</metadata>
<g transform="translate(0.000000,720.000000) scale(0.100000,-0.100000)"
fill="#000000" stroke="none">
<path d="M0 5341 l0 -1460 108 -53 c59 -29 109 -53 112 -54 3 0 79 -37 170
-81 91 -44 171 -82 178 -84 9 -3 3 -10 -15 -19 -15 -8 -31 -19 -35 -25 -4 -5
-8 -7 -8 -3 0 4 -47 -17 -105 -47 -58 -29 -109 -54 -113 -56 -4 -1 -71 -33
-149 -70 l-143 -69 0 -1460 0 -1461 28 14 c15 8 77 38 137 67 127 61 350 168
580 280 88 43 223 108 300 145 77 37 179 87 228 111 48 23 87 40 87 37 0 -3 8
0 18 8 15 13 108 62 122 64 14 3 66 31 71 38 3 5 9 8 13 8 3 0 32 11 63 26 32
15 61 26 66 25 4 -1 7 3 7 8 0 6 4 10 9 10 5 0 85 37 178 82 92 45 171 82 175
83 4 0 13 6 20 12 6 7 16 13 20 13 8 0 129 57 423 201 83 40 153 72 157 71 3
-1 12 5 18 13 7 8 18 15 24 15 6 0 70 29 141 64 258 126 350 170 357 168 3 -1
12 5 18 13 7 8 17 15 22 15 6 0 79 34 164 75 l154 75 98 -47 c53 -26 99 -48
102 -49 3 0 102 -48 220 -106 118 -58 267 -130 330 -160 63 -31 187 -91 275
-133 88 -43 228 -110 310 -150 260 -126 444 -215 625 -303 96 -47 177 -86 180
-87 3 0 61 -28 130 -62 261 -127 355 -171 360 -170 3 1 19 -8 37 -21 17 -12
34 -22 38 -22 4 0 77 -34 163 -76 293 -142 367 -178 372 -179 5 -1 312 -150
343 -166 16 -9 17 63 17 1451 l0 1461 -167 80 c-188 90 -356 172 -362 176 -2
1 4 9 13 18 9 9 16 13 16 9 0 -3 6 -2 12 3 7 6 40 25 73 43 68 37 124 68 175
97 19 11 62 35 95 53 33 18 79 44 103 57 l42 25 0 1459 0 1459 -77 -39 c-43
-21 -100 -49 -128 -61 -27 -13 -142 -67 -255 -122 -113 -55 -243 -118 -290
-140 -47 -22 -92 -44 -100 -49 -8 -5 -24 -13 -35 -18 -21 -9 -200 -95 -475
-229 -91 -43 -222 -107 -292 -141 -69 -33 -131 -61 -137 -61 -6 0 -11 -4 -11
-10 0 -5 -4 -10 -9 -10 -5 0 -66 -27 -134 -60 -69 -33 -130 -60 -136 -60 -6 0
-11 -4 -11 -10 0 -5 -4 -10 -10 -10 -5 0 -74 -31 -152 -69 -289 -139 -447
-215 -623 -301 -271 -131 -360 -173 -364 -170 -2 1 -7 -2 -10 -7 -3 -4 -31
-19 -61 -33 -30 -14 -57 -28 -60 -31 -3 -3 -17 -9 -32 -12 -15 -4 -34 -14 -42
-23 -9 -8 -16 -13 -16 -10 0 3 -31 -11 -69 -30 l-70 -35 -40 21 c-23 11 -41
17 -41 13 0 -5 -4 -3 -8 3 -4 7 -50 32 -102 57 -52 25 -174 83 -270 129 -96
47 -238 116 -315 153 -77 37 -214 103 -305 148 -186 90 -397 192 -575 277 -66
32 -201 97 -300 145 -99 48 -243 118 -320 155 -77 37 -212 103 -300 145 -88
43 -223 108 -300 145 -77 37 -212 102 -300 145 -88 42 -212 102 -275 132 -63
30 -123 59 -132 64 -17 9 -18 -63 -18 -1450z"/>
</g>
</svg>
